# xmcd
#
# Track frame offsets:
#	150
#	19429
#	37602
#	54363
#	72378
#	95626
#	116714
#	137379
#	152578
#	168053
#	193752
#	210970
#	227184
#	245286
#	263788
#	282743
#	298263
#	314161
#
# Disc length: 4470 seconds
#
# Revision: 0
# Processed by: cddbd v1.5.2PL0 Copyright (c) Steve Scherf et al.
# Submitted via: EasyCDDAExtractor 12.0.7.1
#
DISCID=08117412
DTITLE=Лесоповал - Аллея шансона
DYEAR=2011
DGENRE=Chanson
TTITLE0=Я куплю тебе дом
TTITLE1=Королева Марго
TTITLE2=Давай поженимся
TTITLE3=Молитва
TTITLE4=Птичий рынок
TTITLE5=Первая девочка
TTITLE6=Год за два
TTITLE7=Столыпинский вагон
TTITLE8=Заповедь
TTITLE9=Развод
TTITLE10=Сто первый километр
TTITLE11=Ветка мимозы
TTITLE12=Соловьи
TTITLE13=Был пацан
TTITLE14=Черный ворон
TTITLE15=Дорога к тебе
TTITLE16=Голубятня
TTITLE17=Селезень
EXTD=
EXTT0=
EXTT1=
EXTT2=
EXTT3=
EXTT4=
EXTT5=
EXTT6=
EXTT7=
EXTT8=
EXTT9=
EXTT10=
EXTT11=
EXTT12=
EXTT13=
EXTT14=
EXTT15=
EXTT16=
EXTT17=
PLAYORDER=
